<?xml version="1.0" encoding="UTF-8" standalone="no"?>
<svg
   xmlns:dc="http://purl.org/dc/elements/1.1/"
   xmlns:cc="http://creativecommons.org/ns#"
   xmlns:rdf="http://www.w3.org/1999/02/22-rdf-syntax-ns#"
   xmlns:svg="http://www.w3.org/2000/svg"
   xmlns="http://www.w3.org/2000/svg"
   viewBox="0 0 1478.5067 611.31598"
   height="611.31598"
   width="1478.5067"
   xml:space="preserve"
   id="svg2"
   version="1.1"><metadata
     id="metadata8"><rdf:RDF><cc:Work
         rdf:about=""><dc:format>image/svg+xml</dc:format><dc:type
           rdf:resource="http://purl.org/dc/dcmitype/StillImage" /></cc:Work></rdf:RDF></metadata><defs
     id="defs6"><linearGradient
       id="linearGradient30"
       spreadMethod="pad"
       gradientTransform="matrix(134.94464,-0.1955798,-0.1955798,-134.94464,133.89322,318.18158)"
       gradientUnits="userSpaceOnUse"
       y2="0"
       x2="1"
       y1="0"
       x1="0"><stop
         id="stop24"
         offset="0"
         style="stop-opacity:1;stop-color:#b6813b" /><stop
         id="stop26"
         offset="0.58517517"
         style="stop-opacity:1;stop-color:#e3ce7a" /><stop
         id="stop28"
         offset="1"
         style="stop-opacity:1;stop-color:#e3ce7a" /></linearGradient><linearGradient
       id="linearGradient64"
       spreadMethod="pad"
       gradientTransform="matrix(142.07252,-0.2059106,-0.2064502,-142.44501,129.92725,383.90543)"
       gradientUnits="userSpaceOnUse"
       y2="0"
       x2="1"
       y1="0"
       x1="0"><stop
         id="stop46"
         offset="0"
         style="stop-opacity:1;stop-color:#f4f4b7" /><stop
         id="stop48"
         offset="0.119213"
         style="stop-opacity:1;stop-color:#f4f4b7" /><stop
         id="stop50"
         offset="0.47980836"
         style="stop-opacity:1;stop-color:#e5d38e" /><stop
         id="stop52"
         offset="0.493035"
         style="stop-opacity:1;stop-color:#e5d38e" /><stop
         id="stop54"
         offset="0.65388624"
         style="stop-opacity:1;stop-color:#d9b96e" /><stop
         id="stop56"
         offset="0.67047"
         style="stop-opacity:1;stop-color:#d9b96e" /><stop
         id="stop58"
         offset="0.85368073"
         style="stop-opacity:1;stop-color:#d7b467" /><stop
         id="stop60"
         offset="0.884156"
         style="stop-opacity:1;stop-color:#d7b467" /><stop
         id="stop62"
         offset="1"
         style="stop-opacity:1;stop-color:#d7b467" /></linearGradient><linearGradient
       id="linearGradient98"
       spreadMethod="pad"
       gradientTransform="matrix(273.57938,539.63861,539.63861,-273.57938,423.32327,86.537956)"
       gradientUnits="userSpaceOnUse"
       y2="0"
       x2="1"
       y1="0"
       x1="0"><stop
         id="stop80"
         offset="0"
         style="stop-opacity:1;stop-color:#ac7e42" /><stop
         id="stop82"
         offset="0.0925099"
         style="stop-opacity:1;stop-color:#ac7e42" /><stop
         id="stop84"
         offset="0.22102929"
         style="stop-opacity:1;stop-color:#ac7e42" /><stop
         id="stop86"
         offset="0.394201"
         style="stop-opacity:1;stop-color:#e6cb6c" /><stop
         id="stop88"
         offset="0.57318321"
         style="stop-opacity:1;stop-color:#ecd371" /><stop
         id="stop90"
         offset="0.573185"
         style="stop-opacity:1;stop-color:#ecd371" /><stop
         id="stop92"
         offset="0.73919276"
         style="stop-opacity:1;stop-color:#ac7e42" /><stop
         id="stop94"
         offset="0.856874"
         style="stop-opacity:1;stop-color:#ac7e42" /><stop
         id="stop96"
         offset="1"
         style="stop-opacity:1;stop-color:#ac7e42" /></linearGradient><linearGradient
       id="linearGradient132"
       spreadMethod="pad"
       gradientTransform="matrix(71.299095,140.63832,140.63832,-71.299095,53.840736,285.03)"
       gradientUnits="userSpaceOnUse"
       y2="0"
       x2="1"
       y1="0"
       x1="0"><stop
         id="stop114"
         offset="0"
         style="stop-opacity:1;stop-color:#ac7e42" /><stop
         id="stop116"
         offset="0.0925099"
         style="stop-opacity:1;stop-color:#ac7e42" /><stop
         id="stop118"
         offset="0.22102929"
         style="stop-opacity:1;stop-color:#ac7e42" /><stop
         id="stop120"
         offset="0.394201"
         style="stop-opacity:1;stop-color:#e6cb6c" /><stop
         id="stop122"
         offset="0.57318321"
         style="stop-opacity:1;stop-color:#ecd371" /><stop
         id="stop124"
         offset="0.573185"
         style="stop-opacity:1;stop-color:#ecd371" /><stop
         id="stop126"
         offset="0.73919276"
         style="stop-opacity:1;stop-color:#ac7e42" /><stop
         id="stop128"
         offset="0.856874"
         style="stop-opacity:1;stop-color:#ac7e42" /><stop
         id="stop130"
         offset="1"
         style="stop-opacity:1;stop-color:#ac7e42" /></linearGradient><linearGradient
       id="linearGradient166"
       spreadMethod="pad"
       gradientTransform="matrix(62.269959,0,0,-62.269959,82.283653,382.68613)"
       gradientUnits="userSpaceOnUse"
       y2="0"
       x2="1"
       y1="0"
       x1="0"><stop
         id="stop148"
         offset="0"
         style="stop-opacity:1;stop-color:#f4f4b7" /><stop
         id="stop150"
         offset="0.119213"
         style="stop-opacity:1;stop-color:#f4f4b7" /><stop
         id="stop152"
         offset="0.47980836"
         style="stop-opacity:1;stop-color:#e5d38e" /><stop
         id="stop154"
         offset="0.493035"
         style="stop-opacity:1;stop-color:#e5d38e" /><stop
         id="stop156"
         offset="0.65388624"
         style="stop-opacity:1;stop-color:#d9b96e" /><stop
         id="stop158"
         offset="0.67047"
         style="stop-opacity:1;stop-color:#d9b96e" /><stop
         id="stop160"
         offset="0.85368073"
         style="stop-opacity:1;stop-color:#d7b467" /><stop
         id="stop162"
         offset="0.884156"
         style="stop-opacity:1;stop-color:#d7b467" /><stop
         id="stop164"
         offset="1"
         style="stop-opacity:1;stop-color:#d7b467" /></linearGradient><clipPath
       id="clipPath176"
       clipPathUnits="userSpaceOnUse"><path
         id="path174"
         d="M 0,458.487 H 1108.88 V 0 H 0 Z" /></clipPath><linearGradient
       id="linearGradient212"
       spreadMethod="pad"
       gradientTransform="matrix(473.43939,0,0,-473.43939,312.92361,150.56694)"
       gradientUnits="userSpaceOnUse"
       y2="0"
       x2="1"
       y1="0"
       x1="0"><stop
         id="stop194"
         offset="0"
         style="stop-opacity:1;stop-color:#ac7e42" /><stop
         id="stop196"
         offset="0.0925099"
         style="stop-opacity:1;stop-color:#ac7e42" /><stop
         id="stop198"
         offset="0.22102929"
         style="stop-opacity:1;stop-color:#ac7e42" /><stop
         id="stop200"
         offset="0.394201"
         style="stop-opacity:1;stop-color:#e6cb6c" /><stop
         id="stop202"
         offset="0.57318321"
         style="stop-opacity:1;stop-color:#ecd371" /><stop
         id="stop204"
         offset="0.573185"
         style="stop-opacity:1;stop-color:#ecd371" /><stop
         id="stop206"
         offset="0.73919276"
         style="stop-opacity:1;stop-color:#ac7e42" /><stop
         id="stop208"
         offset="0.856874"
         style="stop-opacity:1;stop-color:#ac7e42" /><stop
         id="stop210"
         offset="1"
         style="stop-opacity:1;stop-color:#ac7e42" /></linearGradient><linearGradient
       id="linearGradient246"
       spreadMethod="pad"
       gradientTransform="matrix(6.1435089,203.13457,203.13457,-6.1435089,672.95013,122.55238)"
       gradientUnits="userSpaceOnUse"
       y2="0"
       x2="1"
       y1="0"
       x1="0"><stop
         id="stop228"
         offset="0"
         style="stop-opacity:1;stop-color:#f4f4b7" /><stop
         id="stop230"
         offset="0.119213"
         style="stop-opacity:1;stop-color:#f4f4b7" /><stop
         id="stop232"
         offset="0.47980836"
         style="stop-opacity:1;stop-color:#e5d38e" /><stop
         id="stop234"
         offset="0.493035"
         style="stop-opacity:1;stop-color:#e5d38e" /><stop
         id="stop236"
         offset="0.65388624"
         style="stop-opacity:1;stop-color:#d9b96e" /><stop
         id="stop238"
         offset="0.67047"
         style="stop-opacity:1;stop-color:#d9b96e" /><stop
         id="stop240"
         offset="0.85368073"
         style="stop-opacity:1;stop-color:#d7b467" /><stop
         id="stop242"
         offset="0.884156"
         style="stop-opacity:1;stop-color:#d7b467" /><stop
         id="stop244"
         offset="1"
         style="stop-opacity:1;stop-color:#d7b467" /></linearGradient><linearGradient
       id="linearGradient280"
       spreadMethod="pad"
       gradientTransform="matrix(7.2958031,14.39106,14.39106,-7.2958031,50.44656,292.36642)"
       gradientUnits="userSpaceOnUse"
       y2="0"
       x2="1"
       y1="0"
       x1="0"><stop
         id="stop262"
         offset="0"
         style="stop-opacity:1;stop-color:#ac7e42" /><stop
         id="stop264"
         offset="0.0925099"
         style="stop-opacity:1;stop-color:#ac7e42" /><stop
         id="stop266"
         offset="0.22102929"
         style="stop-opacity:1;stop-color:#ac7e42" /><stop
         id="stop268"
         offset="0.394201"
         style="stop-opacity:1;stop-color:#e6cb6c" /><stop
         id="stop270"
         offset="0.57318321"
         style="stop-opacity:1;stop-color:#ecd371" /><stop
         id="stop272"
         offset="0.573185"
         style="stop-opacity:1;stop-color:#ecd371" /><stop
         id="stop274"
         offset="0.73919276"
         style="stop-opacity:1;stop-color:#ac7e42" /><stop
         id="stop276"
         offset="0.856874"
         style="stop-opacity:1;stop-color:#ac7e42" /><stop
         id="stop278"
         offset="1"
         style="stop-opacity:1;stop-color:#ac7e42" /></linearGradient><linearGradient
       id="linearGradient302"
       spreadMethod="pad"
       gradientTransform="matrix(127.41731,139.52377,139.52377,-127.41731,388.39331,46.413197)"
       gradientUnits="userSpaceOnUse"
       y2="0"
       x2="1"
       y1="0"
       x1="0"><stop
         id="stop296"
         offset="0"
         style="stop-opacity:1;stop-color:#b6813b" /><stop
         id="stop298"
         offset="0.58517517"
         style="stop-opacity:1;stop-color:#e3ce7a" /><stop
         id="stop300"
         offset="1"
         style="stop-opacity:1;stop-color:#e3ce7a" /></linearGradient><linearGradient
       id="linearGradient336"
       spreadMethod="pad"
       gradientTransform="matrix(54.625351,204.34535,204.34535,-54.625351,443.63083,111.47536)"
       gradientUnits="userSpaceOnUse"
       y2="0"
       x2="1"
       y1="0"
       x1="0"><stop
         id="stop318"
         offset="0"
         style="stop-opacity:1;stop-color:#f4f4b7" /><stop
         id="stop320"
         offset="0.119213"
         style="stop-opacity:1;stop-color:#f4f4b7" /><stop
         id="stop322"
         offset="0.47980836"
         style="stop-opacity:1;stop-color:#e5d38e" /><stop
         id="stop324"
         offset="0.493035"
         style="stop-opacity:1;stop-color:#e5d38e" /><stop
         id="stop326"
         offset="0.65388624"
         style="stop-opacity:1;stop-color:#d9b96e" /><stop
         id="stop328"
         offset="0.67047"
         style="stop-opacity:1;stop-color:#d9b96e" /><stop
         id="stop330"
         offset="0.85368073"
         style="stop-opacity:1;stop-color:#d7b467" /><stop
         id="stop332"
         offset="0.884156"
         style="stop-opacity:1;stop-color:#d7b467" /><stop
         id="stop334"
         offset="1"
         style="stop-opacity:1;stop-color:#d7b467" /></linearGradient><linearGradient
       id="linearGradient362"
       spreadMethod="pad"
       gradientTransform="matrix(6.7663803,223.72977,223.72977,-6.7663803,658.06458,-6.8630266)"
       gradientUnits="userSpaceOnUse"
       y2="0"
       x2="1"
       y1="0"
       x1="0"><stop
         id="stop352"
         offset="0"
         style="stop-opacity:1;stop-color:#b6813b" /><stop
         id="stop354"
         offset="0.15858189"
         style="stop-opacity:1;stop-color:#b6813a" /><stop
         id="stop356"
         offset="0.159822"
         style="stop-opacity:1;stop-color:#b6813a" /><stop
         id="stop358"
         offset="0.65147331"
         style="stop-opacity:1;stop-color:#e3ce7a" /><stop
         id="stop360"
         offset="1"
         style="stop-opacity:1;stop-color:#e3ce7a" /></linearGradient><linearGradient
       id="linearGradient396"
       spreadMethod="pad"
       gradientTransform="matrix(82.551117,162.83307,162.83307,-82.551117,297.94971,270.85587)"
       gradientUnits="userSpaceOnUse"
       y2="0"
       x2="1"
       y1="0"
       x1="0"><stop
         id="stop378"
         offset="0"
         style="stop-opacity:1;stop-color:#ac7e42" /><stop
         id="stop380"
         offset="0.0925099"
         style="stop-opacity:1;stop-color:#ac7e42" /><stop
         id="stop382"
         offset="0.22102929"
         style="stop-opacity:1;stop-color:#ac7e42" /><stop
         id="stop384"
         offset="0.394201"
         style="stop-opacity:1;stop-color:#e6cb6c" /><stop
         id="stop386"
         offset="0.57318321"
         style="stop-opacity:1;stop-color:#ecd371" /><stop
         id="stop388"
         offset="0.573185"
         style="stop-opacity:1;stop-color:#ecd371" /><stop
         id="stop390"
         offset="0.73919276"
         style="stop-opacity:1;stop-color:#ac7e42" /><stop
         id="stop392"
         offset="0.856874"
         style="stop-opacity:1;stop-color:#ac7e42" /><stop
         id="stop394"
         offset="1"
         style="stop-opacity:1;stop-color:#ac7e42" /></linearGradient><linearGradient
       id="linearGradient418"
       spreadMethod="pad"
       gradientTransform="matrix(107.37,0,0,-107.37,20.013636,318.08386)"
       gradientUnits="userSpaceOnUse"
       y2="0"
       x2="1"
       y1="0"
       x1="0"><stop
         id="stop412"
         offset="0"
         style="stop-opacity:1;stop-color:#b6813b" /><stop
         id="stop414"
         offset="0.58517517"
         style="stop-opacity:1;stop-color:#e3ce7a" /><stop
         id="stop416"
         offset="1"
         style="stop-opacity:1;stop-color:#e3ce7a" /></linearGradient><linearGradient
       id="linearGradient440"
       spreadMethod="pad"
       gradientTransform="matrix(80.63147,159.04654,159.04654,-80.63147,296.84836,253.31624)"
       gradientUnits="userSpaceOnUse"
       y2="0"
       x2="1"
       y1="0"
       x1="0"><stop
         id="stop434"
         offset="0"
         style="stop-opacity:1;stop-color:#b6813b" /><stop
         id="stop436"
         offset="0.58517517"
         style="stop-opacity:1;stop-color:#e3ce7a" /><stop
         id="stop438"
         offset="1"
         style="stop-opacity:1;stop-color:#e3ce7a" /></linearGradient><linearGradient
       id="linearGradient474"
       spreadMethod="pad"
       gradientTransform="matrix(55.234249,108.95023,108.95023,-55.234249,312.99875,330.9581)"
       gradientUnits="userSpaceOnUse"
       y2="0"
       x2="1"
       y1="0"
       x1="0"><stop
         id="stop456"
         offset="0"
         style="stop-opacity:1;stop-color:#f4f4b7" /><stop
         id="stop458"
         offset="0.119213"
         style="stop-opacity:1;stop-color:#f4f4b7" /><stop
         id="stop460"
         offset="0.47980836"
         style="stop-opacity:1;stop-color:#e5d38e" /><stop
         id="stop462"
         offset="0.493035"
         style="stop-opacity:1;stop-color:#e5d38e" /><stop
         id="stop464"
         offset="0.65388624"
         style="stop-opacity:1;stop-color:#d9b96e" /><stop
         id="stop466"
         offset="0.67047"
         style="stop-opacity:1;stop-color:#d9b96e" /><stop
         id="stop468"
         offset="0.85368073"
         style="stop-opacity:1;stop-color:#d7b467" /><stop
         id="stop470"
         offset="0.884156"
         style="stop-opacity:1;stop-color:#d7b467" /><stop
         id="stop472"
         offset="1"
         style="stop-opacity:1;stop-color:#d7b467" /></linearGradient><linearGradient
       id="linearGradient508"
       spreadMethod="pad"
       gradientTransform="matrix(51.797234,102.17066,102.17066,-51.797234,437.60156,332.10001)"
       gradientUnits="userSpaceOnUse"
       y2="0"
       x2="1"
       y1="0"
       x1="0"><stop
         id="stop490"
         offset="0"
         style="stop-opacity:1;stop-color:#f4f4b7" /><stop
         id="stop492"
         offset="0.119213"
         style="stop-opacity:1;stop-color:#f4f4b7" /><stop
         id="stop494"
         offset="0.47980836"
         style="stop-opacity:1;stop-color:#e5d38e" /><stop
         id="stop496"
         offset="0.493035"
         style="stop-opacity:1;stop-color:#e5d38e" /><stop
         id="stop498"
         offset="0.65388624"
         style="stop-opacity:1;stop-color:#d9b96e" /><stop
         id="stop500"
         offset="0.67047"
         style="stop-opacity:1;stop-color:#d9b96e" /><stop
         id="stop502"
         offset="0.85368073"
         style="stop-opacity:1;stop-color:#d7b467" /><stop
         id="stop504"
         offset="0.884156"
         style="stop-opacity:1;stop-color:#d7b467" /><stop
         id="stop506"
         offset="1"
         style="stop-opacity:1;stop-color:#d7b467" /></linearGradient><linearGradient
       id="linearGradient530"
       spreadMethod="pad"
       gradientTransform="matrix(48.810341,96.278984,96.278984,-48.810341,423.67191,269.71811)"
       gradientUnits="userSpaceOnUse"
       y2="0"
       x2="1"
       y1="0"
       x1="0"><stop
         id="stop524"
         offset="0"
         style="stop-opacity:1;stop-color:#b6813b" /><stop
         id="stop526"
         offset="0.58517517"
         style="stop-opacity:1;stop-color:#e3ce7a" /><stop
         id="stop528"
         offset="1"
         style="stop-opacity:1;stop-color:#e3ce7a" /></linearGradient><linearGradient
       id="linearGradient552"
       spreadMethod="pad"
       gradientTransform="matrix(51.113739,100.82246,100.82246,-51.113739,546.98108,267.91663)"
       gradientUnits="userSpaceOnUse"
       y2="0"
       x2="1"
       y1="0"
       x1="0"><stop
         id="stop546"
         offset="0"
         style="stop-opacity:1;stop-color:#b6813b" /><stop
         id="stop548"
         offset="0.58517517"
         style="stop-opacity:1;stop-color:#e3ce7a" /><stop
         id="stop550"
         offset="1"
         style="stop-opacity:1;stop-color:#e3ce7a" /></linearGradient><linearGradient
       id="linearGradient586"
       spreadMethod="pad"
       gradientTransform="matrix(79.974464,157.7506,157.7506,-79.974464,553.02881,315.02972)"
       gradientUnits="userSpaceOnUse"
       y2="0"
       x2="1"
       y1="0"
       x1="0"><stop
         id="stop568"
         offset="0"
         style="stop-opacity:1;stop-color:#f4f4b7" /><stop
         id="stop570"
         offset="0.119213"
         style="stop-opacity:1;stop-color:#f4f4b7" /><stop
         id="stop572"
         offset="0.47980836"
         style="stop-opacity:1;stop-color:#e5d38e" /><stop
         id="stop574"
         offset="0.493035"
         style="stop-opacity:1;stop-color:#e5d38e" /><stop
         id="stop576"
         offset="0.65388624"
         style="stop-opacity:1;stop-color:#d9b96e" /><stop
         id="stop578"
         offset="0.67047"
         style="stop-opacity:1;stop-color:#d9b96e" /><stop
         id="stop580"
         offset="0.85368073"
         style="stop-opacity:1;stop-color:#d7b467" /><stop
         id="stop582"
         offset="0.884156"
         style="stop-opacity:1;stop-color:#d7b467" /><stop
         id="stop584"
         offset="1"
         style="stop-opacity:1;stop-color:#d7b467" /></linearGradient><linearGradient
       id="linearGradient618"
       spreadMethod="pad"
       gradientTransform="matrix(105.78812,208.66835,208.66835,-105.78812,686.30426,305.44058)"
       gradientUnits="userSpaceOnUse"
       y2="0"
       x2="1"
       y1="0"
       x1="0"><stop
         id="stop602"
         offset="0"
         style="stop-opacity:1;stop-color:#f4f4b7" /><stop
         id="stop604"
         offset="0.108879"
         style="stop-opacity:1;stop-color:#f4f4b7" /><stop
         id="stop606"
         offset="0.42102836"
         style="stop-opacity:1;stop-color:#d9b96e" /><stop
         id="stop608"
         offset="0.432478"
         style="stop-opacity:1;stop-color:#d9b96e" /><stop
         id="stop610"
         offset="0.72094791"
         style="stop-opacity:1;stop-color:#e5d38e" /><stop
         id="stop612"
         offset="0.768932"
         style="stop-opacity:1;stop-color:#e5d38e" /><stop
         id="stop614"
         offset="0.97840349"
         style="stop-opacity:1;stop-color:#d7b467" /><stop
         id="stop616"
         offset="1"
         style="stop-opacity:1;stop-color:#d7b467" /></linearGradient><linearGradient
       id="linearGradient640"
       spreadMethod="pad"
       gradientTransform="matrix(100.92517,199.07611,199.07611,-100.92517,670.87268,246.32558)"
       gradientUnits="userSpaceOnUse"
       y2="0"
       x2="1"
       y1="0"
       x1="0"><stop
         id="stop634"
         offset="0"
         style="stop-opacity:1;stop-color:#b6813b" /><stop
         id="stop636"
         offset="0.58517517"
         style="stop-opacity:1;stop-color:#e3ce7a" /><stop
         id="stop638"
         offset="1"
         style="stop-opacity:1;stop-color:#e3ce7a" /></linearGradient><linearGradient
       id="linearGradient674"
       spreadMethod="pad"
       gradientTransform="matrix(79.560165,156.93338,156.93338,-79.560165,844.8847,315.8092)"
       gradientUnits="userSpaceOnUse"
       y2="0"
       x2="1"
       y1="0"
       x1="0"><stop
         id="stop656"
         offset="0"
         style="stop-opacity:1;stop-color:#f4f4b7" /><stop
         id="stop658"
         offset="0.119213"
         style="stop-opacity:1;stop-color:#f4f4b7" /><stop
         id="stop660"
         offset="0.47980836"
         style="stop-opacity:1;stop-color:#e5d38e" /><stop
         id="stop662"
         offset="0.493035"
         style="stop-opacity:1;stop-color:#e5d38e" /><stop
         id="stop664"
         offset="0.65388624"
         style="stop-opacity:1;stop-color:#d9b96e" /><stop
         id="stop666"
         offset="0.67047"
         style="stop-opacity:1;stop-color:#d9b96e" /><stop
         id="stop668"
         offset="0.85368073"
         style="stop-opacity:1;stop-color:#d7b467" /><stop
         id="stop670"
         offset="0.884156"
         style="stop-opacity:1;stop-color:#d7b467" /><stop
         id="stop672"
         offset="1"
         style="stop-opacity:1;stop-color:#d7b467" /></linearGradient><linearGradient
       id="linearGradient696"
       spreadMethod="pad"
       gradientTransform="matrix(94.166702,185.74495,185.74495,-94.166702,822.24152,243.15877)"
       gradientUnits="userSpaceOnUse"
       y2="0"
       x2="1"
       y1="0"
       x1="0"><stop
         id="stop690"
         offset="0"
         style="stop-opacity:1;stop-color:#b6813b" /><stop
         id="stop692"
         offset="0.58517517"
         style="stop-opacity:1;stop-color:#e3ce7a" /><stop
         id="stop694"
         offset="1"
         style="stop-opacity:1;stop-color:#e3ce7a" /></linearGradient><linearGradient
       id="linearGradient730"
       spreadMethod="pad"
       gradientTransform="matrix(99.50325,196.27135,196.27135,-99.50325,971.4118,310.02805)"
       gradientUnits="userSpaceOnUse"
       y2="0"
       x2="1"
       y1="0"
       x1="0"><stop
         id="stop712"
         offset="0"
         style="stop-opacity:1;stop-color:#f4f4b7" /><stop
         id="stop714"
         offset="0.119213"
         style="stop-opacity:1;stop-color:#f4f4b7" /><stop
         id="stop716"
         offset="0.47980836"
         style="stop-opacity:1;stop-color:#e5d38e" /><stop
         id="stop718"
         offset="0.493035"
         style="stop-opacity:1;stop-color:#e5d38e" /><stop
         id="stop720"
         offset="0.65388624"
         style="stop-opacity:1;stop-color:#d9b96e" /><stop
         id="stop722"
         offset="0.67047"
         style="stop-opacity:1;stop-color:#d9b96e" /><stop
         id="stop724"
         offset="0.85368073"
         style="stop-opacity:1;stop-color:#d7b467" /><stop
         id="stop726"
         offset="0.884156"
         style="stop-opacity:1;stop-color:#d7b467" /><stop
         id="stop728"
         offset="1"
         style="stop-opacity:1;stop-color:#d7b467" /></linearGradient><linearGradient
       id="linearGradient752"
       spreadMethod="pad"
       gradientTransform="matrix(94.782967,186.96054,186.96054,-94.782967,956.37335,250.71828)"
       gradientUnits="userSpaceOnUse"
       y2="0"
       x2="1"
       y1="0"
       x1="0"><stop
         id="stop746"
         offset="0"
         style="stop-opacity:1;stop-color:#b6813b" /><stop
         id="stop748"
         offset="0.58517517"
         style="stop-opacity:1;stop-color:#e3ce7a" /><stop
         id="stop750"
         offset="1"
         style="stop-opacity:1;stop-color:#e3ce7a" /></linearGradient><clipPath
       id="clipPath762"
       clipPathUnits="userSpaceOnUse"><path
         id="path760"
         d="M 0,458.487 H 1108.88 V 0 H 0 Z" /></clipPath><clipPath
       id="clipPath774"
       clipPathUnits="userSpaceOnUse"><path
         id="path772"
         d="M 0,458.487 H 1108.88 V 0 H 0 Z" /></clipPath></defs><g
     transform="matrix(1.3333333,0,0,-1.3333333,0,611.316)"
     id="g10"><g
       id="g12"><g
         id="g14"><g
           id="g20"><g
             id="g22"><path
               id="path32"
               style="fill:url(#linearGradient30);stroke:none"
               d="m 225.328,348.987 -7.321,-1.493 c -0.909,-3.194 -2.818,-7.334 -4.027,-9.108 v 0 c -1.029,-1.509 -4.528,-4.276 -6.114,-5.179 v 0 c -6.307,-3.587 -12.686,-0.683 -15.323,1.316 v 0 c -3.683,2.791 -5.832,4.065 -6.733,8.186 v 0 c -0.436,1.999 -0.974,3.39 -0.829,5.186 v 0 l -8.643,0.762 -42.151,-0.278 c -0.011,-0.06 -0.011,-0.12 -0.02,-0.18 v 0 c -0.061,-0.47 -0.203,-1.829 -0.225,-3.83 v 0 c -0.001,-0.249 -0.011,-0.5 -0.012,-0.77 v 0 c 0,-0.26 -0.001,-0.54 0.009,-0.82 v 0 c 0,-0.23 -0.001,-0.459 0.009,-0.69 v 0 c 0,-0.1 0,-0.2 0.01,-0.3 v 0 c 0.268,-8.04 2.517,-22.094 13.56,-34.26 v 0 c 0.289,-0.31 0.579,-0.62 0.869,-0.93 v 0 c 7.079,-7.421 17.549,-14.046 33.004,-18.048 v 0 c 0.029,-0.011 0.049,-0.021 0.07,-0.021 v 0 c 0.01,0 0.019,0 0.029,-0.01 v 0 c 0.33,-0.091 3.049,-0.804 7.438,-1.29 v 0 c 0.07,0 0.14,-0.011 0.22,-0.021 v 0 c 13.188,-1.399 40.879,-0.549 63.697,25.378 v 0 c 0.17,0.19 0.341,0.39 0.511,0.589 v 0 c 0,0 0.141,0.16 0.381,0.479 v 0 c 0.1,0.12 0.2,0.241 0.291,0.36 v 0 c 0.01,0.01 0.02,0.02 0.02,0.03 v 0 c 0.09,0.11 0.18,0.23 0.28,0.36 v 0 c 0.05,0.06 0.1,0.13 0.151,0.2 v 0 c 0.059,0.079 0.119,0.149 0.17,0.229 v 0 c 1.613,2.108 4.458,6.104 7.185,11.03 v 0 c 0.041,0.049 0.061,0.1 0.09,0.149 v 0 c 3.721,6.776 7.203,15.31 6.945,23.251 v 0 0.01 z" /></g></g></g></g><g
       id="g34"><g
         id="g36"><g
           id="g42"><g
             id="g44"><path
               id="path66"
               style="fill:url(#linearGradient64);stroke:none"
               d="m 149.171,391.431 c -0.043,-0.053 -0.085,-0.096 -0.117,-0.148 v 0 c -1.107,-1.489 -10.15,-13.816 -15.413,-26.877 v 0 c -0.011,-0.021 -0.022,-0.053 -0.032,-0.074 v 0 c -2.314,-5.77 -3.892,-11.668 -3.721,-16.838 v 0 l 44.388,0.294 9.928,0.523 c 0.622,7.961 6.573,13.22 6.573,13.22 v 0 c 3.302,3.908 6.841,5.394 10.096,5.653 v 0 c 7.868,0.633 15.285,-5.98 15.336,-13.911 v 0 c 0.018,-1.935 0.819,-3.844 0.374,-5.377 v 0 l 9.284,0.24 45.851,0.304 c 0.022,0.19 0.042,0.37 0.053,0.56 v 0 c 0.033,0.402 0.065,0.804 0.087,1.195 v 0 c 0.032,0.444 0.054,0.888 0.064,1.322 v 0 c 0.011,0.316 0.023,0.655 0.023,1.015 v 0 c 0.24,13.121 -2.912,53.909 -50.273,66.222 v 0 c -0.042,0.011 -0.095,0.021 -0.137,0.031 v 0 c -0.547,0.15 -4.947,1.245 -11.729,1.402 v 0 h -0.084 c -0.492,0.011 -0.993,0.017 -1.509,0.017 v 0 c -14.413,-0.001 -38.094,-4.426 -59.042,-28.773" /></g></g></g></g><g
       id="g68"><g
         id="g70"><g
           id="g76"><g
             id="g78"><path
               id="path100"
               style="fill:url(#linearGradient98);stroke:none"
               d="m 153.634,408.587 3.87,16.869 -63.9,-0.09 -23.741,-87.74 c 0,0 -2.309,-8.11 -10.199,0 v 0 l -9.041,13.66 -43.619,-38.57 c 0,0 15.68,-28.62 38.7,-33.29 v 0 c 0,0 36.399,-8.71 59.42,9.02 v 0 c 0,0 16.16,11.47 22.709,29.87 v 0 c 0,0 19.911,-42.24 64.091,-41.03 v 0 c 0,0 37.64,-1.899 58.8,20.49 v 0 l -3.741,-18.04 h 65.331 l 6.54,26.76 2.8,3.11 11.51,-30.18 h 222.74 l 0.1,0.33 7.37,24.56 9.82,-24.39 h 107.409 l 1.291,4.54 8.48,29.73 6.84,-17.69 h 13.559 l 10.741,11.94 -6.93,-28.48 -0.231,-0.93 h 111.34 l 9.771,16.601 h 27.99 l 1.739,-16.271 h 105.911 l 11.289,39.28 18.681,-38.849 h 51.21 c -0.14,14.259 40.719,145.569 40.719,145.569 v 0 h -64.949 l -9.401,-36.96 -18.249,36.96 h -53.77 l -23.63,-85.75 -13,85.75 h -57.08 l -56.121,-81.47 21.011,81.47 h -64.55 l -28.06,-32.259 -12.17,32.259 h -56.531 l -8.02,-27.28 c 0,0 -8.239,23.47 -48.77,27.28 v 0 H 360.694 l -14.09,-13.74 3.87,13.74 h -64.421 l -10.36,-40.41 c 0,0 -13.269,36.07 -57.23,42.02 v 0 c 0,0 -3.72,0.763 -9.946,0.763 v 0 c -11.935,0 -33.078,-2.802 -54.883,-19.152 m -4.76,-102.741 c -0.75,0.75 -1.48,1.51 -2.16,2.301 v 0 c -0.161,0.169 -0.31,0.349 -0.47,0.519 v 0 c -0.3,0.35 -0.601,0.71 -0.9,1.07 v 0 c -0.2,0.24 -0.401,0.481 -0.601,0.73 v 0 c -0.419,0.54 -0.839,1.08 -1.25,1.641 v 0 c 0,0.009 -0.01,0.009 -0.01,0.009 v 0 c -0.46,0.63 -0.909,1.27 -1.34,1.92 v 0 l -0.01,0.01 c -0.43,0.65 -0.849,1.31 -1.25,1.98 v 0 l -0.01,0.01 c -0.409,0.67 -0.79,1.35 -1.16,2.04 v 0 l -0.01,0.01 c -0.559,1.03 -1.089,2.09 -1.569,3.17 v 0 l -0.01,0.01 c -0.491,1.08 -0.95,2.181 -1.35,3.3 v 0 l -0.01,0.01 c -0.24,0.66 -0.481,1.34 -0.7,2.02 v 0 c -0.33,1.02 -0.63,2.05 -0.89,3.1 v 0 c -0.19,0.7 -0.35,1.41 -0.491,2.12 v 0 c -0.799,3.77 -1.19,7.73 -1.129,11.86 v 0 c 0,0.27 0.01,0.52 0.01,0.77 v 0 c 0.019,2 0.16,3.36 0.22,3.83 v 0 c 0.01,0.06 0.01,0.12 0.02,0.18 v 0 c -0.17,4.89 1.319,10.47 3.51,15.93 v 0 c 0.01,0.02 0.02,0.05 0.03,0.07 v 0 c 3.169,9.15 8.2,17.84 14.599,25.44 v 0 c 0.031,0.05 0.071,0.09 0.11,0.141 v 0 c 14.161,16.799 34.99,28.209 57.091,27.299 v 0 c 0.12,-0.01 0.25,-0.01 0.37,-0.02 v 0 h 0.08 c 6.439,-0.14 10.62,-1.169 11.14,-1.31 v 0 c 0.04,-0.01 0.09,-0.02 0.13,-0.03 v 0 c 29.77,-5.85 47.86,-29.169 47.86,-61.209 v 0 c 0,-0.771 -0.02,-1.54 -0.051,-2.311 v 0 c -0.009,-0.41 -0.029,-0.83 -0.059,-1.25 v 0 c -0.021,-0.37 -0.05,-0.75 -0.08,-1.13 v 0 c -0.01,-0.18 -0.031,-0.349 -0.05,-0.529 v 0 -0.01 c 0.27,-7.941 -3.2,-16.481 -6.911,-23.261 v 0 c -0.029,-0.049 -0.049,-0.1 -0.09,-0.15 v 0 c -0.509,-0.99 -1.049,-1.969 -1.62,-2.94 v 0 c -0.18,-0.31 -0.37,-0.63 -0.56,-0.95 v 0 c -0.97,-1.6 -2.009,-3.16 -3.12,-4.69 v 0 c -0.309,-0.46 -0.65,-0.91 -1,-1.35 v 0 c -0.329,-0.45 -0.679,-0.9 -1.039,-1.34 v 0 c -0.051,-0.07 -0.1,-0.139 -0.151,-0.2 v 0 c -0.099,-0.13 -0.189,-0.25 -0.279,-0.36 v 0 c 0,-0.01 -0.01,-0.02 -0.02,-0.029 v 0 c -0.09,-0.121 -0.19,-0.241 -0.29,-0.361 v 0 c -0.24,-0.32 -0.381,-0.48 -0.381,-0.48 v 0 c -0.17,-0.2 -0.339,-0.4 -0.509,-0.59 v 0 c -13.29,-15.63 -33.26,-26.03 -54.211,-26.03 v 0 c -3.199,0 -6.359,0.191 -9.45,0.56 v 0 c -0.08,0.01 -0.149,0.02 -0.219,0.02 v 0 c -4.391,0.48 -7.11,1.19 -7.441,1.28 v 0 c -0.009,0.01 -0.019,0.01 -0.029,0.01 v 0 c -0.02,0 -0.041,0.01 -0.07,0.02 v 0 c -9.67,2.171 -18.541,6.17 -25.92,11.69 v 0 c -0.64,0.48 -1.27,0.97 -1.881,1.48 v 0 c -0.319,0.251 -0.63,0.51 -0.929,0.76 v 0 c -0.61,0.51 -1.2,1.03 -1.781,1.58 v 0 h -0.009 c -0.58,0.54 -1.141,1.08 -1.7,1.64 m -70.77,29.11 c 0.01,0.011 0.02,0.011 0.02,0.02 v 0 l 4.13,14.47 0.029,0.101 18.151,66.279 h 44.119 l -17.17,-66.23 -4.889,-18.859 c 0,0 0,-0.01 -0.01,-0.031 v 0 c -0.01,-0.02 -0.01,-0.059 -0.03,-0.1 v 0 c -0.011,-0.02 -0.011,-0.049 -0.021,-0.07 v 0 c 0,-0.03 -0.01,-0.06 -0.019,-0.09 v 0 c -0.03,-0.1 -0.06,-0.22 -0.1,-0.37 v 0 c -0.18,-0.63 -0.511,-1.69 -1.01,-3.06 v 0 c -0.08,-0.21 -0.16,-0.43 -0.25,-0.65 v 0 c -0.45,-1.19 -1.02,-2.58 -1.74,-4.12 v 0 c -0.121,-0.26 -0.24,-0.53 -0.381,-0.8 v 0 c -0.159,-0.349 -0.329,-0.699 -0.519,-1.059 v 0 c -0.15,-0.311 -0.32,-0.63 -0.491,-0.961 v 0 c -0.17,-0.32 -0.34,-0.65 -0.519,-0.98 v 0 c -0.721,-1.32 -1.531,-2.7 -2.441,-4.12 v 0 c -0.219,-0.34 -0.44,-0.67 -0.659,-1.01 v 0 c -0.251,-0.38 -0.511,-0.759 -0.781,-1.14 v 0 c -0.149,-0.22 -0.299,-0.44 -0.46,-0.65 v 0 c -0.679,-0.97 -1.42,-1.939 -2.209,-2.91 v 0 c -0.17,-0.199 -0.34,-0.41 -0.5,-0.61 v 0 c -0.12,-0.15 -0.241,-0.3 -0.37,-0.45 v 0 c -0.02,-0.02 -0.04,-0.05 -0.061,-0.07 v 0 c -0.019,-0.02 -0.039,-0.05 -0.069,-0.07 v 0 -0.01 c -0.15,-0.18 -0.31,-0.36 -0.481,-0.55 v 0 c -0.17,-0.2 -0.35,-0.41 -0.53,-0.61 v 0 c -0.319,-0.37 -0.659,-0.75 -1.019,-1.12 v 0 c -0.341,-0.36 -0.681,-0.72 -1.04,-1.07 v 0 c -0.21,-0.229 -0.43,-0.44 -0.651,-0.65 v 0 c -0.129,-0.14 -0.27,-0.26 -0.399,-0.389 v 0 c -0.39,-0.371 -0.78,-0.741 -1.18,-1.101 v 0 c -0.1,-0.09 -0.2,-0.17 -0.301,-0.27 v 0 c -0.069,-0.06 -0.139,-0.12 -0.209,-0.18 v 0 c -0.29,-0.26 -0.591,-0.519 -0.9,-0.78 v 0 c -0.17,-0.15 -0.341,-0.29 -0.521,-0.43 v 0 c -0.279,-0.23 -0.559,-0.46 -0.839,-0.69 v 0 c -0.11,-0.09 -0.221,-0.17 -0.331,-0.26 v 0 c -0.019,-0.02 -0.029,-0.03 -0.049,-0.04 v 0 c -0.16,-0.13 -0.33,-0.26 -0.491,-0.39 v 0 c -0.189,-0.14 -0.379,-0.29 -0.579,-0.43 v 0 c -0.07,-0.06 -0.141,-0.109 -0.221,-0.18 v 0 c -0.129,-0.08 -0.249,-0.17 -0.379,-0.27 v 0 c -0.31,-0.23 -0.63,-0.46 -0.95,-0.67 v 0 c -0.031,-0.03 -0.06,-0.05 -0.09,-0.069 v 0 c -0.24,-0.171 -0.481,-0.341 -0.73,-0.501 v 0 c -0.24,-0.16 -0.49,-0.32 -0.741,-0.47 v 0 c -0.45,-0.3 -0.9,-0.59 -1.359,-0.86 v 0 c -0.54,-0.34 -1.09,-0.66 -1.65,-0.98 v 0 c -0.34,-0.21 -0.691,-0.4 -1.041,-0.58 v 0 c -0.71,-0.37 -1.44,-0.74 -2.179,-1.1 v 0 c -0.47,-0.23 -0.961,-0.45 -1.45,-0.67 v 0 c -0.491,-0.22 -0.98,-0.44 -1.491,-0.64 v 0 c -0.019,-0.02 -0.049,-0.03 -0.069,-0.03 v 0 c -0.291,-0.13 -0.58,-0.24 -0.88,-0.35 v 0 c -0.25,-0.11 -0.501,-0.2 -0.75,-0.299 v 0 c -0.18,-0.071 -0.361,-0.141 -0.541,-0.201 v 0 c -0.319,-0.12 -0.64,-0.24 -0.959,-0.349 v 0 c -0.321,-0.121 -0.63,-0.231 -0.941,-0.331 v 0 c -0.36,-0.13 -0.72,-0.24 -1.09,-0.35 v 0 c -11.259,-3.57 -20.209,-2.93 -20.209,-2.93 v 0 h -0.32 c -10.04,-0.12 -18.33,2.93 -24.84,6.89 v 0 c -0.05,0.02 -0.1,0.05 -0.161,0.09 v 0 c -0.649,0.37 -1.289,0.76 -1.939,1.18 v 0 c -0.28,0.17 -0.56,0.35 -0.83,0.54 v 0 c -0.561,0.36 -1.111,0.74 -1.66,1.15 v 0 c -0.29,0.2 -0.58,0.41 -0.86,0.64 v 0 c -0.14,0.1 -0.291,0.21 -0.43,0.33 v 0 c -0.61,0.47 -1.211,0.96 -1.81,1.48 v 0 c -0.1,0.08 -0.19,0.16 -0.29,0.25 v 0 c -0.32,0.27 -0.641,0.57 -0.96,0.86 v 0 c -0.63,0.58 -1.26,1.191 -1.87,1.82 v 0 c -0.171,0.17 -0.341,0.35 -0.501,0.53 v 0 c -0.179,0.18 -0.339,0.36 -0.509,0.54 v 0 c -0.17,0.181 -0.331,0.36 -0.491,0.551 v 0 c -0.169,0.18 -0.339,0.369 -0.499,0.569 v 0 c -0.33,0.38 -0.66,0.77 -0.98,1.17 v 0 c -0.321,0.39 -0.64,0.8 -0.951,1.22 v 0 c -0.28,0.371 -0.559,0.74 -0.83,1.13 v 0 c -0.099,0.13 -0.199,0.27 -0.299,0.411 v 0 c -0.24,0.339 -0.48,0.689 -0.71,1.049 v 0 c -0.12,0.17 -0.241,0.35 -0.35,0.52 v 0 c -0.17,0.26 -0.341,0.52 -0.511,0.79 v 0 l 28.591,25.04 c 5.263,-6.306 10.342,-8.393 14.758,-8.394 v 0 c 8.379,0 14.375,7.512 14.742,7.984 m 285.58,80.08 h 53.61 l -57.82,-57.82 2.86,-7.62 22.38,-59.66 h -45.561 l -14.019,39.6 -15.771,-15.77 -5.599,-23.83 h -43.451 l 16.02,59.611 17.621,65.489 h 42.399 l -10.52,-41.35 z m 8.319,-59.3 28.291,28.17 -15.881,-60.43 z m 199.231,22.241 h 20.17 c 1.819,0 3.64,-0.551 5.03,-1.721 v 0 c 1.929,-1.63 2.629,-3.83 2.76,-5.93 v 0 c 0.319,-5.1 -2.79,-9.799 -7.48,-11.84 v 0 c -4.511,-1.97 -9.26,-2.09 -9.26,-2.09 v 0 h -16.61 z m 285.64,-28.381 9.779,13.88 1.281,-13.88 1.1,-12.01 h -20.63 z m -234.17,-24.61 8.859,4.761 -4.429,-15.911 z" /></g></g></g></g><g
       id="g102"><g
         id="g104"><g
           id="g110"><g
             id="g112"><path
               id="path134"
               style="fill:url(#linearGradient132);stroke:none"
               d="m 100.434,415.826 -18.151,-66.279 -0.029,-0.101 -4.13,-14.47 c 0,-0.009 -0.01,-0.009 -0.02,-0.02 v 0 c -0.56,-0.72 -14.25,-17.86 -29.5,0.41 v 0 l -28.591,-25.04 c 0.17,-0.27 0.341,-0.53 0.511,-0.79 v 0 c 0.109,-0.17 0.23,-0.35 0.35,-0.52 v 0 c 0.59,-0.9 1.199,-1.76 1.839,-2.59 v 0 c 0.311,-0.41 0.63,-0.82 0.951,-1.22 v 0 c 0.32,-0.4 0.65,-0.79 0.98,-1.17 v 0 c 0.16,-0.2 0.33,-0.389 0.499,-0.569 v 0 c 0.16,-0.191 0.321,-0.37 0.491,-0.551 v 0 c 0.17,-0.18 0.33,-0.36 0.509,-0.54 v 0 c 0.16,-0.18 0.33,-0.36 0.501,-0.53 v 0 c 0.61,-0.629 1.24,-1.24 1.87,-1.82 v 0 c 0.319,-0.29 0.64,-0.58 0.96,-0.86 v 0 c 0.1,-0.09 0.19,-0.17 0.29,-0.25 v 0 c 0.599,-0.52 1.2,-1.01 1.81,-1.48 v 0 c 0.139,-0.12 0.29,-0.23 0.43,-0.33 v 0 c 0.28,-0.23 0.57,-0.44 0.86,-0.64 v 0 c 0.549,-0.41 1.099,-0.79 1.66,-1.15 v 0 c 0.27,-0.19 0.55,-0.37 0.83,-0.54 v 0 c 0.65,-0.42 1.29,-0.81 1.939,-1.18 v 0 c 0.061,-0.04 0.111,-0.07 0.161,-0.09 v 0 c 6.51,-3.96 14.8,-7.01 24.84,-6.89 v 0 h 0.32 c 0,0 8.95,-0.64 20.209,2.93 v 0 c 0.37,0.11 0.73,0.22 1.09,0.35 v 0 c 0.311,0.1 0.62,0.21 0.941,0.331 v 0 c 0.319,0.109 0.64,0.229 0.959,0.349 v 0 c 0.18,0.06 0.361,0.13 0.541,0.201 v 0 c 0.249,0.099 0.5,0.189 0.75,0.299 v 0 c 0.3,0.11 0.589,0.22 0.88,0.35 v 0 c 0.02,0 0.05,0.01 0.069,0.03 v 0 c 0.511,0.2 1,0.42 1.491,0.64 v 0 c 0.489,0.22 0.98,0.44 1.45,0.67 v 0 c 0.739,0.36 1.469,0.73 2.179,1.1 v 0 c 0.35,0.19 0.701,0.38 1.041,0.58 v 0 c 0.56,0.32 1.11,0.64 1.65,0.98 v 0 c 0.459,0.28 0.909,0.571 1.359,0.86 v 0 c 0.251,0.15 0.501,0.31 0.741,0.47 v 0 c 0.249,0.16 0.49,0.33 0.73,0.501 v 0 c 0.35,0.239 0.699,0.489 1.04,0.739 v 0 c 0.13,0.1 0.25,0.19 0.379,0.27 v 0 c 0.08,0.071 0.151,0.12 0.221,0.18 v 0 c 0.2,0.14 0.39,0.29 0.579,0.43 v 0 c 0.161,0.13 0.331,0.26 0.491,0.39 v 0 c 0.02,0.01 0.03,0.02 0.049,0.04 v 0 c 0.11,0.09 0.221,0.17 0.331,0.26 v 0 c 0.28,0.23 0.56,0.46 0.839,0.69 v 0 c 0.18,0.14 0.351,0.28 0.521,0.43 v 0 c 0.309,0.261 0.61,0.52 0.9,0.78 v 0 c 0.07,0.06 0.14,0.12 0.209,0.18 v 0 c 0.101,0.1 0.201,0.18 0.301,0.27 v 0 c 0.4,0.36 0.79,0.73 1.18,1.101 v 0 c 0.129,0.129 0.27,0.249 0.399,0.389 v 0 c 0.221,0.21 0.441,0.421 0.651,0.65 v 0 c 0.359,0.35 0.699,0.71 1.04,1.07 v 0 c 0.34,0.37 0.68,0.74 1.019,1.12 v 0 c 0.18,0.2 0.36,0.41 0.53,0.61 v 0 c 0.171,0.19 0.331,0.37 0.481,0.55 v 0 0.01 c 0.03,0.02 0.05,0.05 0.069,0.07 v 0 c 0.021,0.02 0.041,0.05 0.061,0.07 v 0 c 0.129,0.15 0.25,0.3 0.37,0.45 v 0 c 0.16,0.2 0.33,0.411 0.5,0.61 v 0 c 0.789,0.971 1.53,1.94 2.209,2.91 v 0 c 0.161,0.21 0.311,0.43 0.46,0.65 v 0 c 0.27,0.381 0.53,0.76 0.781,1.14 v 0 c 0.219,0.34 0.44,0.67 0.659,1.01 v 0 c 0.91,1.42 1.72,2.8 2.441,4.12 v 0 c 0.179,0.33 0.349,0.66 0.519,0.98 v 0 c 0.171,0.331 0.341,0.65 0.491,0.961 v 0 c 0.18,0.36 0.35,0.71 0.519,1.059 v 0 c 0.131,0.27 0.26,0.54 0.381,0.8 v 0 c 0.72,1.54 1.29,2.93 1.74,4.12 v 0 c 0.09,0.22 0.17,0.44 0.25,0.65 v 0 c 0.499,1.37 0.83,2.43 1.01,3.06 v 0 c 0.04,0.15 0.07,0.27 0.1,0.37 v 0 c 0.009,0.03 0.019,0.06 0.019,0.09 v 0 c 0.01,0.021 0.01,0.05 0.021,0.07 v 0 c 0.02,0.041 0.02,0.08 0.03,0.1 v 0 c 0.01,0.021 0.01,0.031 0.01,0.031 v 0 l 4.889,18.859 17.17,66.23 z" /></g></g></g></g><g
       id="g136"><g
         id="g138"><g
           id="g144"><g
             id="g146"><path
               id="path168"
               style="fill:url(#linearGradient166);stroke:none"
               d="m 100.434,415.826 -18.151,-66.279 45.1,0.049 17.17,66.23 z" /></g></g></g></g><g
       id="g170"><g
         clip-path="url(#clipPath176)"
         id="g172"><g
           transform="translate(675.0273,178.5187)"
           id="g178"><path
             id="path180"
             style="fill:#ad8035;fill-opacity:1;fill-rule:nonzero;stroke:none"
             d="m 0,0 c -7.167,0.037 -14.224,4.966 -14.048,13.001 0.217,9.882 6.599,14.412 14.627,14.412 6.857,0 13.438,-4.293 13.438,-14.217 C 14.017,5.252 6.704,-0.035 0,0 m 24.887,19.176 c -0.8,15.53 -11.79,19.52 -25.32,18.82 -13.53,-0.7 -23.85,-13.85 -23.05,-29.38 0.81,-15.53 9.33,-24.54 22.85,-23.84 13.53,0.69 26.32,18.87 25.52,34.4" /></g></g></g><g
       id="g182"><g
         id="g184"><g
           id="g190"><g
             id="g192"><path
               id="path214"
               style="fill:url(#linearGradient212);stroke:none"
               d="m 637.014,277.176 c 0,0 -27.511,-8.94 -48.651,-32.09 v 0 l 9.73,34.77 -217.9,-0.5 -23.14,-88.6 h 93.101 L 312.924,21.227 h 120.369 l 128.811,163.25 c 0,0 -1.76,-40.921 19.159,-59.231 v 0 l -47.07,-75.309 c 0,0 32.951,-34.811 97.55,-33.231 v 0 c 0,0 80.55,0.54 119.77,60.69 v 0 c 0,0 27.93,29.41 34.361,94.31 v 0 c 0,0 9.36,75.62 -53.791,101.83 v 0 c 0,0 -20.606,10.942 -51.595,10.944 v 0 c -12.932,0 -27.666,-1.904 -43.474,-7.304 m 25.22,-113.08 c -12.031,5.33 -13.98,22.67 -7.93,36.33 v 0 c 6.049,13.661 20.709,20.421 32.74,15.09 v 0 c 12.029,-5.33 16.879,-20.72 10.82,-34.38 v 0 c -4.82,-10.89 -16.94,-18.627 -27.752,-18.627 v 0 c -2.76,0 -5.433,0.504 -7.878,1.587" /></g></g></g></g><g
       id="g216"><g
         id="g218"><g
           id="g224"><g
             id="g226"><path
               id="path248"
               style="fill:url(#linearGradient246);stroke:none"
               d="m 654.944,270.696 c -10.22,-2.21 -21.15,-6.04 -32.32,-12.25 v 0 c 0,0 -0.01,-0.01 -0.04,-0.02 v 0 c -1.14,-0.62 -29.84,-16.39 -42.63,-48.51 v 0 c -5.84,-14.68 -8.35,-32.77 -3.391,-54.39 v 0 l 2.99,0.01 193.68,0.38 h 0.101 c 0,0 9.609,45.59 -13.1,79.65 v 0 c -0.161,0.26 -0.341,0.52 -0.511,0.77 v 0 c -8.72,12.74 -22.029,23.78 -42.179,30.11 v 0 c 0,0 -0.021,0.01 -0.05,0.02 v 0 c -0.02,0.011 -0.061,0.03 -0.12,0.06 v 0 h -0.01 c -1.787,0.744 -16.761,6.744 -38.257,6.744 v 0 c -7.376,0 -15.52,-0.706 -24.163,-2.574 m 7.29,-106.6 c -12.031,5.33 -13.98,22.67 -7.93,36.33 v 0 c 6.049,13.661 20.709,20.421 32.74,15.09 v 0 c 12.029,-5.33 16.879,-20.72 10.82,-34.38 v 0 c -4.82,-10.89 -16.94,-18.627 -27.752,-18.627 v 0 c -2.76,0 -5.433,0.504 -7.878,1.587" /></g></g></g></g><g
       id="g250"><g
         id="g252"><g
           id="g258"><g
             id="g260"><path
               id="path282"
               style="fill:url(#linearGradient280);stroke:none"
               d="m 22.713,306.426 c -0.559,0.74 -1.109,1.51 -1.639,2.31 v 0 c -0.071,0.1 -0.14,0.19 -0.2,0.28 v 0 c 0.59,-0.9 1.199,-1.76 1.839,-2.59 M 87.98,291.424 c 10e-4,0.001 0.003,0.002 0.004,0.002 v 0 c -10e-4,0 -0.003,-10e-4 -0.004,-0.002 m -0.066,-0.018 c -0.27,-0.12 -0.54,-0.23 -0.81,-0.33 v 0 c 0.298,0.109 0.586,0.219 0.876,0.348 v 0 c -0.02,-0.008 -0.039,-0.008 -0.066,-0.018" /></g></g></g></g><g
       id="g284"><g
         id="g286"><g
           id="g292"><g
             id="g294"><path
               id="path304"
               style="fill:url(#linearGradient302);stroke:none"
               d="M 436.398,155.912 336.13,32.371 h 91.433 l 97.517,123.541 z" /></g></g></g></g><g
       id="g306"><g
         id="g308"><g
           id="g314"><g
             id="g316"><path
               id="path338"
               style="fill:url(#linearGradient336);stroke:none"
               d="m 388.409,268.609 -17.28,-66.716 h 102.588 l -37.319,-45.981 h 88.682 l 41.819,52.981 15.749,59.716 z" /></g></g></g></g><g
       id="g340"><g
         id="g342"><g
           id="g348"><g
             id="g350"><path
               id="path364"
               style="fill:url(#linearGradient362);stroke:none"
               d="m 576.562,155.526 c 0,0 25.125,-72.876 110.144,-28.828 v 0 c 0,0 -34.034,-68.982 -102.1,-18.107 v 0 L 549.5,52.847 c 0,0 33.739,-28.317 72.166,-25.008 v 0 c 0,0 73.497,-7.238 120.472,55.85 v 0 c 0,0 31.254,41.106 31.195,72.223 v 0 c 0,0 -68.812,0 -196.771,-0.386" /></g></g></g></g><g
       id="g366"><g
         id="g368"><g
           id="g374"><g
             id="g376"><path
               id="path398"
               style="fill:url(#linearGradient396);stroke:none"
               d="m 363.684,415.036 -37.851,-41.35 10.52,41.35 h -42.399 l -17.621,-65.489 -16.02,-59.611 h 43.451 l 5.599,23.83 15.771,15.77 14.019,-39.6 h 45.561 l -22.38,59.66 -2.86,7.62 57.82,57.82 z" /></g></g></g></g><g
       id="g400"><g
         id="g402"><g
           id="g408"><g
             id="g410"><path
               id="path420"
               style="fill:url(#linearGradient418);stroke:none"
               d="m 82.283,349.547 -0.029,-0.101 -4.13,-14.47 c 0,-0.009 -0.01,-0.009 -0.02,-0.02 v 0 c -0.56,-0.72 -14.25,-17.86 -29.5,0.41 v 0 l -28.591,-25.04 c 0.17,-0.27 0.341,-0.53 0.511,-0.79 v 0 c 0.109,-0.17 0.23,-0.35 0.35,-0.52 v 0 c 0.06,-0.09 0.129,-0.18 0.2,-0.28 v 0 c 2.169,-3.04 7.62,-9.87 16.219,-15.14 v 0 c 0.061,-0.04 0.111,-0.07 0.161,-0.09 v 0 c 6.51,-3.96 14.8,-7.01 24.84,-6.89 v 0 h 0.32 c 0,0 8.95,-0.64 20.209,2.93 v 0 c 0.37,0.11 0.73,0.22 1.09,0.35 v 0 c 0.311,0.1 0.62,0.21 0.941,0.331 v 0 c 0.319,0.109 0.64,0.229 0.959,0.349 v 0 c 0.18,0.06 0.361,0.13 0.541,0.201 v 0 c 0.249,0.099 0.5,0.189 0.75,0.299 v 0 c 0.27,0.1 0.54,0.21 0.81,0.33 v 0 c 3.05,1.27 6.19,2.87 9.309,4.88 v 0 c 1.041,0.67 2.08,1.39 3.111,2.16 v 0 c 0.36,0.27 0.71,0.54 1.07,0.82 v 0 c 0.02,0.01 0.03,0.02 0.049,0.04 v 0 c 0.11,0.09 0.221,0.17 0.331,0.26 v 0 c 0.28,0.23 0.56,0.46 0.839,0.69 v 0 c 0.18,0.14 0.351,0.28 0.521,0.43 v 0 c 0.309,0.261 0.61,0.52 0.9,0.78 v 0 c 0.07,0.06 0.14,0.12 0.209,0.18 v 0 c 0.101,0.1 0.201,0.18 0.301,0.27 v 0 c 0.4,0.36 0.79,0.73 1.18,1.101 v 0 c 0.129,0.129 0.27,0.249 0.399,0.389 v 0 c 0.221,0.21 0.441,0.421 0.651,0.65 v 0 c 0.349,0.35 0.699,0.7 1.04,1.07 v 0 c 0.34,0.37 0.68,0.74 1.019,1.12 v 0 c 0.18,0.2 0.36,0.41 0.53,0.61 v 0 c 0.171,0.19 0.331,0.37 0.481,0.55 v 0 0.01 c 0.169,0.191 0.329,0.39 0.5,0.59 v 0 c 0.16,0.2 0.33,0.411 0.5,0.61 v 0 c 4.57,5.72 8.599,12.89 11.579,21.92 v 0 c 0.01,0.021 0.01,0.05 0.021,0.07 v 0 c 0.02,0.041 0.02,0.08 0.03,0.1 v 0 c 0.01,0.021 0.01,0.031 0.01,0.031 v 0 l 4.889,18.859 z" /></g></g></g></g><g
       id="g422"><g
         id="g424"><g
           id="g430"><g
             id="g432"><path
               id="path442"
               style="fill:url(#linearGradient440);stroke:none"
               d="m 276.344,349.547 h -0.011 l -16.02,-59.611 h 43.451 l 5.599,23.83 15.771,15.77 14.019,-39.6 h 45.561 l -22.38,59.66 z" /></g></g></g></g><g
       id="g444"><g
         id="g446"><g
           id="g452"><g
             id="g454"><path
               id="path476"
               style="fill:url(#linearGradient474);stroke:none"
               d="m 363.684,415.036 -37.851,-41.35 10.52,41.35 h -42.399 l -17.621,-65.489 h 0.011 l 85.99,0.049 -2.86,7.62 57.82,57.82 z" /></g></g></g></g><g
       id="g478"><g
         id="g480"><g
           id="g486"><g
             id="g488"><path
               id="path510"
               style="fill:url(#linearGradient508);stroke:none"
               d="m 421.152,415.04 -18.061,-65.445 101.85,-0.054 5.314,19.821 -60.413,0.137 2.603,10 h 65.07 l 9.816,35.541 z" /></g></g></g></g><g
       id="g512"><g
         id="g514"><g
           id="g520"><g
             id="g522"><path
               id="path532"
               style="fill:url(#linearGradient530);stroke:none"
               d="m 386.279,288.675 108.496,0.822 9.452,36.439 -66.44,-0.137 3.836,11.644 60.001,-0.273 3.317,12.371 -101.85,0.054 z" /></g></g></g></g><g
       id="g534"><g
         id="g536"><g
           id="g542"><g
             id="g544"><path
               id="path554"
               style="fill:url(#linearGradient552);stroke:none"
               d="m 520.25,349.595 -16.343,-59.842 45.593,0.187 6.822,34.438 h 9.725 l 13.491,-34.438 h 46.747 l -17.256,41.34 c 0,0 15.855,1.474 26.826,18.315 v 0 z" /></g></g></g></g><g
       id="g556"><g
         id="g558"><g
           id="g564"><g
             id="g566"><path
               id="path588"
               style="fill:url(#linearGradient586);stroke:none"
               d="m 538.124,415.036 -17.87,-65.44 h 115.6 c 0,0 11.16,15.32 5.879,36.21 v 0 c -0.019,0.09 -0.049,0.191 -0.069,0.281 v 0 c -0.021,0.109 -0.05,0.209 -0.08,0.309 v 0 c 0,0 -0.321,1.86 -1.62,4.64 v 0 c -0.211,0.46 -0.43,0.92 -0.671,1.37 v 0 c -1.359,2.58 -3.49,5.71 -6.769,8.83 v 0 c -0.19,0.18 -0.39,0.36 -0.591,0.54 v 0 c -0.64,0.59 -1.329,1.18 -2.07,1.761 v 0 c -0.36,0.279 -0.72,0.559 -1.08,0.829 v 0 c -0.219,0.16 -0.439,0.32 -0.659,0.48 v 0 c -3.211,2.27 -7.181,4.41 -12.07,6.16 v 0 c -5.49,1.96 -12.15,3.42 -20.221,4.03 v 0 z m 33.11,-37.059 h 20.17 c 1.819,0 3.64,-0.551 5.03,-1.721 v 0 c 1.929,-1.63 2.629,-3.83 2.76,-5.93 v 0 c 0.319,-5.1 -2.79,-9.799 -7.48,-11.84 v 0 c -4.511,-1.97 -9.26,-2.09 -9.26,-2.09 v 0 h -16.61 z" /></g></g></g></g><g
       id="g590"><g
         id="g592"><g
           id="g598"><g
             id="g600"><path
               id="path620"
               style="fill:url(#linearGradient618);stroke:none"
               d="M 757.925,415.04 720.829,373.016 706.056,415.04 H 663.707 L 646.044,349.595 H 786.85 l 18.349,65.445 z" /></g></g></g></g><g
       id="g622"><g
         id="g624"><g
           id="g630"><g
             id="g632"><path
               id="path642"
               style="fill:url(#linearGradient640);stroke:none"
               d="m 646.044,349.595 -16.15,-59.842 h 42.494 l 15.869,59.447 14.459,-43.105 3.34,-0.05 37.425,42.677 -16.087,-58.969 h 42.678 l 16.778,59.842 z" /></g></g></g></g><g
       id="g644"><g
         id="g646"><g
           id="g652"><g
             id="g654"><path
               id="path676"
               style="fill:url(#linearGradient674);stroke:none"
               d="m 858.273,415.036 -44.81,-65.44 h 43.411 l 9.779,13.88 1.281,-13.88 h 42.629 l -9.399,65.44 z" /></g></g></g></g><g
       id="g678"><g
         id="g680"><g
           id="g686"><g
             id="g688"><path
               id="path698"
               style="fill:url(#linearGradient696);stroke:none"
               d="m 867.934,349.596 1.1,-12.01 h -20.63 l 8.47,12.01 h -43.411 l -41.089,-60.02 h 47.14 l 10.63,16.88 h 41.889 l 1.62,-16.88 h 45.521 l -8.611,60.02 z" /></g></g></g></g><g
       id="g700"><g
         id="g702"><g
           id="g708"><g
             id="g710"><path
               id="path732"
               style="fill:url(#linearGradient730);stroke:none"
               d="m 1036.009,415.04 -15.718,-55.875 -26.578,55.875 h -39.152 l -17.143,-65.445 h 124.142 l 17.888,65.445 z" /></g></g></g></g><g
       id="g734"><g
         id="g736"><g
           id="g742"><g
             id="g744"><path
               id="path754"
               style="fill:url(#linearGradient752);stroke:none"
               d="m 978.607,349.595 h 0.676 l -0.43,0.937 z m 0.676,0 27.576,-60.022 h 38.295 l 16.406,60.022 z m -41.865,0 -15.723,-60.022 h 41.154 l 15.758,60.022 z" /></g></g></g></g><g
       id="g756"><g
         clip-path="url(#clipPath762)"
         id="g758"><g
           transform="translate(200.8437,332.1562)"
           id="g764"><path
             id="path766"
             style="fill:#ad8035;fill-opacity:1;fill-rule:nonzero;stroke:none"
             d="m 0,0 c -8.7,0 -15.74,7.05 -15.74,15.74 0,8.69 7.04,15.74 15.74,15.74 8.69,0 15.74,-7.05 15.74,-15.74 C 15.74,7.05 8.69,0 0,0 m 0,41.53 c -14.25,0 -25.79,-11.55 -25.79,-25.79 0,-14.24 11.54,-25.79 25.79,-25.79 14.24,0 25.78,11.55 25.78,25.79 0,14.24 -11.54,25.79 -25.78,25.79" /></g></g></g><g
       id="g768"><g
         clip-path="url(#clipPath774)"
         id="g770"><g
           transform="translate(144.8252,415.8964)"
           id="g776"><path
             id="path778"
             style="fill:none;stroke:#ffffff;stroke-width:2;stroke-linecap:butt;stroke-linejoin:miter;stroke-miterlimit:10;stroke-dasharray:none;stroke-opacity:1"
             d="m 0,0 -17.17,-66.23 -4.89,-18.86 c 0,0 0,-0.01 -0.01,-0.03 -0.01,-0.02 -0.01,-0.06 -0.03,-0.1 -0.01,-0.02 -0.01,-0.05 -0.02,-0.07 0,-0.03 -0.01,-0.06 -0.02,-0.09 -0.03,-0.1 -0.06,-0.22 -0.1,-0.37 -0.18,-0.63 -0.51,-1.69 -1.01,-3.06 -0.08,-0.21 -0.16,-0.43 -0.25,-0.65 -0.45,-1.19 -1.02,-2.58 -1.74,-4.12 -0.12,-0.26 -0.25,-0.53 -0.38,-0.8 -0.17,-0.35 -0.34,-0.7 -0.52,-1.06 -0.15,-0.31 -0.32,-0.63 -0.49,-0.96 -0.17,-0.32 -0.34,-0.65 -0.52,-0.98 -0.72,-1.32 -1.53,-2.7 -2.44,-4.12 -0.22,-0.34 -0.44,-0.67 -0.66,-1.01 -0.25,-0.38 -0.51,-0.76 -0.78,-1.14 -0.15,-0.22 -0.3,-0.44 -0.46,-0.65 -0.68,-0.97 -1.42,-1.94 -2.21,-2.91 -0.17,-0.2 -0.34,-0.41 -0.5,-0.61 -0.12,-0.15 -0.24,-0.3 -0.37,-0.45 -0.02,-0.02 -0.04,-0.05 -0.06,-0.07 -0.02,-0.02 -0.04,-0.05 -0.07,-0.07 v -0.01 c -0.15,-0.18 -0.31,-0.36 -0.48,-0.55 -0.17,-0.2 -0.35,-0.41 -0.53,-0.61 -0.34,-0.38 -0.68,-0.75 -1.02,-1.12 -0.34,-0.36 -0.68,-0.72 -1.04,-1.07 -0.21,-0.23 -0.43,-0.44 -0.65,-0.65 -0.13,-0.14 -0.27,-0.26 -0.4,-0.39 -0.39,-0.37 -0.78,-0.74 -1.18,-1.1 -0.1,-0.09 -0.2,-0.17 -0.3,-0.27 -0.07,-0.06 -0.14,-0.12 -0.21,-0.18 -0.29,-0.26 -0.59,-0.52 -0.9,-0.78 -0.17,-0.15 -0.34,-0.29 -0.52,-0.43 -0.28,-0.23 -0.56,-0.46 -0.84,-0.69 -0.11,-0.09 -0.22,-0.17 -0.33,-0.26 -0.02,-0.02 -0.03,-0.03 -0.05,-0.04 -0.16,-0.13 -0.33,-0.26 -0.49,-0.39 -0.19,-0.14 -0.38,-0.29 -0.58,-0.43 -0.07,-0.06 -0.14,-0.11 -0.22,-0.18 -0.13,-0.08 -0.25,-0.17 -0.38,-0.27 -0.34,-0.25 -0.69,-0.5 -1.04,-0.74 -0.24,-0.17 -0.48,-0.34 -0.73,-0.5 -0.24,-0.16 -0.49,-0.32 -0.74,-0.47 -0.45,-0.29 -0.9,-0.58 -1.36,-0.86 -0.54,-0.34 -1.09,-0.66 -1.65,-0.98 -0.34,-0.2 -0.69,-0.39 -1.04,-0.58 -0.71,-0.37 -1.44,-0.74 -2.18,-1.1 -0.47,-0.23 -0.96,-0.45 -1.45,-0.67 -0.49,-0.22 -0.98,-0.44 -1.49,-0.64 -0.02,-0.02 -0.05,-0.03 -0.07,-0.03 -0.29,-0.13 -0.58,-0.24 -0.88,-0.35 -0.25,-0.11 -0.5,-0.2 -0.75,-0.3 -0.18,-0.07 -0.36,-0.14 -0.54,-0.2 -0.32,-0.12 -0.64,-0.24 -0.96,-0.35 -0.32,-0.12 -0.63,-0.23 -0.94,-0.33 -0.36,-0.13 -0.72,-0.24 -1.09,-0.35 -5.88,-1.81 -12.58,-2.9 -20.21,-2.93 h -0.32 c -2.01,0 -13.27,0.31 -24.84,6.89 -0.05,0.02 -0.1,0.05 -0.16,0.09 -0.65,0.37 -1.29,0.76 -1.94,1.18 -0.28,0.17 -0.56,0.35 -0.83,0.54 -0.56,0.36 -1.11,0.74 -1.66,1.15 -0.29,0.2 -0.58,0.41 -0.86,0.64 -0.14,0.1 -0.29,0.21 -0.43,0.33 -0.61,0.47 -1.21,0.96 -1.81,1.48 -0.1,0.08 -0.19,0.16 -0.29,0.25 -0.32,0.28 -0.64,0.57 -0.96,0.86 -0.63,0.58 -1.26,1.19 -1.87,1.82 -0.17,0.17 -0.34,0.35 -0.5,0.53 -0.18,0.18 -0.34,0.36 -0.51,0.54 -0.17,0.18 -0.33,0.36 -0.49,0.55 -0.17,0.18 -0.34,0.37 -0.5,0.57 -0.33,0.38 -0.66,0.77 -0.98,1.17 -0.32,0.4 -0.64,0.81 -0.95,1.22 -0.64,0.83 -1.25,1.69 -1.84,2.59 -0.12,0.17 -0.24,0.35 -0.35,0.52 -0.17,0.26 -0.34,0.52 -0.51,0.79 l 28.59,25.04 c 0,0 0.29,-0.6 0.92,-1.52 6.92,-10.03 23.077,-10.208 28.41,0.84 0.07,0.09 0.12,0.18 0.17,0.27 0.01,0.01 0.02,0.01 0.02,0.02 0.21,0.34 0.37,0.71 0.47,1.1 l 3.66,13.37 0.03,0.1 L -44.12,0 Z" /></g><g
           transform="translate(220.4394,416.3586)"
           id="g780"><path
             id="path782"
             style="fill:none;stroke:#ffffff;stroke-width:2;stroke-linecap:butt;stroke-linejoin:miter;stroke-miterlimit:10;stroke-dasharray:none;stroke-opacity:1"
             d="m 0,0 c 14.044,-2.48 37.971,-11.638 46.105,-50.324 3.264,-15.529 0.809,-31.809 -7.548,-45.299 -5.476,-8.84 -14.002,-17.949 -27.272,-24.615 -20.521,-10.308 -44.73,-11.067 -65.467,-1.202 -12.92,6.146 -25.83,16.981 -30.443,36.069 -2.285,9.453 -1.976,19.359 0.586,28.74 4.854,17.771 18.611,45.277 55.395,55.216 C -20.851,0.69 -7.949,1.403 0,0 Z" /></g><g
           transform="translate(388.6801,268.6791)"
           id="g784"><path
             id="path786"
             style="fill:none;stroke:#ffffff;stroke-width:2;stroke-linecap:butt;stroke-linejoin:miter;stroke-miterlimit:10;stroke-dasharray:none;stroke-opacity:1"
             d="M 0,0 H 194.24 L 178.491,-59.716 39.154,-236.238 H -52.279 L 85.308,-66.715 H -17.28 Z" /></g><g
           transform="translate(697.6315,181.9016)"
           id="g788"><path
             id="path790"
             style="fill:none;stroke:#ffffff;stroke-width:2;stroke-linecap:butt;stroke-linejoin:miter;stroke-miterlimit:10;stroke-dasharray:none;stroke-opacity:1"
             d="m 0,0 c -6.05,-13.67 -21.634,-22.177 -34.461,-16.901 -12.169,5.006 -14.645,21.836 -8.595,35.496 6.05,13.66 20.71,20.42 32.74,15.09 C 1.714,28.355 6.06,13.66 0,0 Z" /></g><g
           transform="translate(760.5052,235.6364)"
           id="g792"><path
             id="path794"
             style="fill:none;stroke:#ffffff;stroke-width:2;stroke-linecap:butt;stroke-linejoin:miter;stroke-miterlimit:10;stroke-dasharray:none;stroke-opacity:1"
             d="m 0,0 c -0.16,0.26 -0.34,0.52 -0.51,0.77 -8.58,12.89 -21.85,24.13 -42.18,30.11 0,0 -0.02,0.01 -0.05,0.02 -0.03,0.02 -0.07,0.04 -0.12,0.06 h -0.01 c -2.35,1.08 -27.52,12.08 -62.42,4.17 -10.07,-2.28 -20.95,-6.13 -32.32,-12.25 0,0 -0.01,-0.01 -0.04,-0.02 -1.14,-0.57 -30.11,-15.19 -42.63,-48.51 -5.44,-14.48 -7.78,-32.48 -3.39,-54.39 0,0 0.01,-0.04 0.04,-0.12 0.66,-2.03 9.87,-28.72 37.23,-38.69 16.75,-6.11 40.3,-5.95 72.87,9.98 0,0 0,-0.01 -0.01,-0.04 -0.3,-1.03 -7.14,-23.65 -34.65,-32.87 -0.03,-0.01 -0.06,-0.02 -0.09,-0.03 -1.35,-0.45 -2.76,-0.87 -4.22,-1.25 0,0 -11.75,-3.64 -27.16,-1.41 -11.1,1.6 -24.1,6.25 -35.97,17.5 l -35.1,-55.75 0.02,-0.02 c 0.32,-0.29 4.85,-4.43 13.52,-9.27 11.87,-6.64 31.5,-14.58 58.62,-15.72 0,0 0.37,-0.04 1.08,-0.08 0.32,-0.02 0.71,-0.05 1.17,-0.07 0.04,0 0.09,-0.01 0.15,0 3.52,-0.17 10.74,-0.28 20.23,0.81 1.26,0.14 2.56,0.3 3.9,0.49 0.86,0.12 1.74,0.25 2.63,0.39 0.57,0.09 1.14,0.19 1.72,0.28 25.44,4.34 61.72,17.21 89.59,54.03 0,0 0.03,0.04 0.09,0.12 1.65,2.36 26.11,37.76 31.01,72.11 0.41,2.91 0.69,5.8 0.8,8.67 0,0 6.3,40.02 -13.8,70.98 z" /></g><g
           transform="translate(362.6053,349.6664)"
           id="g796"><path
             id="path798"
             style="fill:none;stroke:#ffffff;stroke-width:2;stroke-linecap:butt;stroke-linejoin:miter;stroke-miterlimit:10;stroke-dasharray:none;stroke-opacity:1"
             d="m 0,0 22.38,-59.66 h -45.56 l -14.02,39.6 -15.77,-15.77 -5.6,-23.83 h -43.45 l 16.03,59.61 17.61,65.49 h 42.4 L -36.5,24.09 1.35,65.44 H 54.96 L -2.86,7.62 Z" /></g><g
           transform="translate(527.6021,415.1108)"
           id="g800"><path
             id="path802"
             style="fill:none;stroke:#ffffff;stroke-width:2;stroke-linecap:butt;stroke-linejoin:miter;stroke-miterlimit:10;stroke-dasharray:none;stroke-opacity:1"
             d="m 0,0 h -106.178 l -34.873,-126.365 108.495,0.821 9.453,36.44 -66.44,-0.137 3.835,11.644 60.002,-0.274 8.63,32.192 -60.412,0.137 2.603,10.001 h 65.07 z" /></g><g
           transform="translate(571.5052,378.0464)"
           id="g804"><path
             id="path806"
             style="fill:none;stroke:#ffffff;stroke-width:2;stroke-linecap:butt;stroke-linejoin:miter;stroke-miterlimit:10;stroke-dasharray:none;stroke-opacity:1"
             d="m 0,0 h 20.17 c 1.82,0 3.64,-0.55 5.03,-1.72 1.93,-1.63 2.63,-3.83 2.76,-5.93 0.32,-5.1 -2.79,-9.8 -7.48,-11.84 -4.51,-1.97 -9.26,-2.09 -9.26,-2.09 H -5.39 Z m 70.5,7.83 c -0.02,0.09 -0.05,0.19 -0.07,0.28 -0.02,0.11 -0.05,0.21 -0.08,0.31 -0.41,1.59 -0.96,3.14 -1.62,4.64 -0.21,0.46 -0.43,0.92 -0.67,1.37 -0.172,0.327 -0.358,0.664 -0.556,1.007 -1.305,2.366 -2.925,4.558 -4.834,6.493 -0.45,0.45 -0.91,0.9 -1.38,1.33 -0.19,0.18 -0.39,0.36 -0.59,0.54 -0.67,0.61 -1.37,1.19 -2.07,1.76 -0.36,0.28 -0.72,0.56 -1.08,0.83 -0.22,0.16 -0.44,0.32 -0.66,0.48 -3.63,2.62 -7.68,4.71 -12.07,6.16 -0.23,0.08 -0.47,0.16 -0.71,0.23 -8.33,2.6 -17.03,3.8 -25.76,3.8 h -51.46 l -17.87,-65.44 -16.35,-59.84 45.6,0.18 6.82,34.44 h 9.72 L 8.3,-88.04 H 55.05 L 37.8,-46.7 c 3.61,0.62 6.87,1.69 9.8,3.08 0.35,0.16 0.69,0.33 1.03,0.51 0.35,0.18 0.7,0.37 1.06,0.57 2.22,1.22 4.23,2.62 6.05,4.14 0.27,0.22 0.54,0.45 0.8,0.68 0.37,0.32 0.72,0.64 1.07,0.97 0.7,0.66 1.37,1.33 2.01,2.01 1.86,1.98 3.51,4.11 4.95,6.36 6.83,10.6 8.99,23.76 5.93,36.21 z" /></g><g
           transform="translate(630.1652,289.8238)"
           id="g808"><path
             id="path810"
             style="fill:none;stroke:#ffffff;stroke-width:2;stroke-linecap:butt;stroke-linejoin:miter;stroke-miterlimit:10;stroke-dasharray:none;stroke-opacity:1"
             d="m 0,0 33.814,125.287 h 42.349 l 14.772,-42.025 37.097,42.025 h 47.273 L 140.179,0 H 97.501 L 113.587,58.969 76.163,16.292 72.822,16.341 58.363,59.446 42.494,0 Z" /></g><g
           transform="translate(848.6752,337.6564)"
           id="g812"><path
             id="path814"
             style="fill:none;stroke:#ffffff;stroke-width:2;stroke-linecap:butt;stroke-linejoin:miter;stroke-miterlimit:10;stroke-dasharray:none;stroke-opacity:1"
             d="M 0,0 8.47,12.01 18.25,25.89 19.53,12.01 20.63,0 Z M 62.15,12.01 52.76,77.45 H 9.87 L -34.94,12.01 -76.03,-48.01 h 47.14 l 10.63,16.88 h 41.89 l 1.62,-16.88 h 45.52 z" /></g><g
           transform="translate(954.8325,415.1108)"
           id="g816"><path
             id="path818"
             style="fill:none;stroke:#ffffff;stroke-width:2;stroke-linecap:butt;stroke-linejoin:miter;stroke-miterlimit:10;stroke-dasharray:none;stroke-opacity:1"
             d="M 0,0 H 39.152 L 65.73,-55.876 81.448,0 h 43.439 L 90.593,-125.468 H 52.298 l -28.006,60.96 -16.004,-60.96 h -41.153 z" /></g><g
           transform="translate(591.9852,358.5564)"
           id="g820"><path
             id="path822"
             style="fill:none;stroke:#ffffff;stroke-width:2;stroke-linecap:butt;stroke-linejoin:miter;stroke-miterlimit:10;stroke-dasharray:none;stroke-opacity:1"
             d="m 0,0 c -4.51,-1.97 -9.26,-2.09 -9.26,-2.09 h -16.61 l 5.39,21.58 h 20.17 c 1.82,0 3.64,-0.55 5.03,-1.72 C 6.65,16.14 7.35,13.94 7.48,11.84 7.8,6.74 4.69,2.04 0,0 Z" /></g><g
           transform="translate(227.3215,347.9652)"
           id="g824"><path
             id="path826"
             style="fill:none;stroke:#ffffff;stroke-width:2;stroke-linecap:butt;stroke-linejoin:miter;stroke-miterlimit:10;stroke-dasharray:none;stroke-opacity:1"
             d="m 0,0 c 0,-14.396 -11.671,-26.067 -26.067,-26.067 -14.397,0 -26.067,11.671 -26.067,26.067 0,14.396 11.67,26.067 26.067,26.067 C -11.671,26.067 0,14.396 0,0 Z" /></g></g></g></g></svg>